# xmcd
#
# Track frame offsets:
#	150
#	16077
#	41357
#	55112
#	77302
#	95822
#	113922
#	131895
#	156280
#	171877
#	181015
#	196325
#
# Disc length: 2866 seconds
# Revision: 0
# Processed by: cddbd v1.5.2PL0 Copyright (c) Steve Scherf et al.
# Submitted via: dBpowerAMP V12.0
#
DISCID=900b300c
DTITLE=Blackthorn (Michigan) - Nil Na La
DYEAR=1997
DGENRE=Irish
TTITLE0=Don O'Hara
TTITLE1=Rambling Irishman - Jig Of Slurs
TTITLE2=When The Boys Come Rollin'  Home
TTITLE3=Kilkelly Ireland
TTITLE4=The Reel In The Flickering Light
TTITLE5=The Old Triangle
TTITLE6=Barrett's Privateers
TTITLE7=She Moved Through The Far - Jig
TTITLE8=All Around My Hat
TTITLE9=Caliope House
TTITLE10=Dirty Old Town
TTITLE11=Nil Na La
EXTD=
EXTT0=
EXTT1=
EXTT2=
EXTT3=
EXTT4=
EXTT5=
EXTT6=
EXTT7=
EXTT8=
EXTT9=
EXTT10=
EXTT11=
PLAYORDER=
